# xmcd
#
# Track frame offsets:
#	180
#	12705
#	26001
#	37671
#	50454
#	62252
#	77243
#	89125
#	102130
#	115930
#	130181
#	142380
#	156231
#	168127
#	180166
#	193508
#
# Disc length: 2759 seconds
#
# Revision: 0
# Processed by: cddbd v1.5.2PL0 Copyright (c) Steve Scherf et al.
# Submitted via: dBpowerAMP V4.0
#
DISCID=cf0ac510
DTITLE=Various Artist - Discover the Blues cd2
DYEAR=1900
DGENRE=Blues
TTITLE0=Big Joe Turner - Careless Love
TTITLE1=Champion Jack Dupree - Cabbage Greens no 1
TTITLE2=Big Joe Turner - Blues on Central Avenue
TTITLE3=Brownie Mc Ghee - Ain't No Tellin'
TTITLE4=Sammy Price - Boogie Woogie Notion
TTITLE5=Muddy Waters - 32-20 Blues
TTITLE6=Sammy Price - Callin'em Home
TTITLE7=Arthur Big Boy Crudup - Crudup's After Hours
TTITLE8=Sammy Price - Boogin' with Big Sid
TTITLE9=Big Boy Crudup - Chicago Blues
TTITLE10=Sonny Terry - Beer Garden Blues
TTITLE11=Sonny Terry - All Allone Blues
TTITLE12=Lightning Hopkins - Come Back Baby
TTITLE13=John Lee Hooker - Burning Hell
TTITLE14=Lonnie Johnson - Backwater Blues
TTITLE15=John Lee Hooker - Black Cat Blues
EXTD=
EXTT0=
EXTT1=
EXTT2=
EXTT3=
EXTT4=
EXTT5=
EXTT6=
EXTT7=
EXTT8=
EXTT9=
EXTT10=
EXTT11=
EXTT12=
EXTT13=
EXTT14=
EXTT15=
PLAYORDER=
